<svg xmlns="http://www.w3.org/2000/svg" viewBox="0 0 720 440" role="img" aria-labelledby="title desc">
  <title id="title">Modern meeting room</title>
  <desc id="desc">A meeting room with a screen, table, chairs, and windows.</desc>
  <rect width="720" height="440" fill="#f4f8f8"/>
  <path d="M0 0h720v184H0z" fill="#dcebec"/>
  <path d="M52 46h156v112H52zM236 46h156v112H236zM420 46h248v112H420z" fill="#b9d5da"/>
  <path d="M72 66h116v72H72zM256 66h116v72H256zM440 66h208v72H440z" fill="#eef7f7"/>
  <path d="M0 184h720v256H0z" fill="#fff7ef"/>
  <path d="M460 192h166v94H460z" fill="#10222d"/>
  <path d="M478 212h130v54H478z" fill="#41b6a9"/>
  <path d="M82 246h404c35 0 64 29 64 64H18c0-35 29-64 64-64z" fill="#bf5b43"/>
  <path d="M68 310h496v30H68z" fill="#8d3f32"/>
  <path d="M104 340h38v72h-38zM488 340h38v72h-38z" fill="#5c342f"/>
  <path d="M176 220h58c18 0 32 14 32 32v34H144v-34c0-18 14-32 32-32z" fill="#567188"/>
  <path d="M326 220h58c18 0 32 14 32 32v34H294v-34c0-18 14-32 32-32z" fill="#0d766e"/>
  <path d="M582 246h62c18 0 32 14 32 32v98H550v-98c0-18 14-32 32-32z" fill="#e8b15e"/>
  <circle cx="206" cy="256" r="18" fill="#e6f0f2"/>
  <circle cx="356" cy="256" r="18" fill="#e6f0f2"/>
  <circle cx="613" cy="284" r="18" fill="#fff4df"/>
  <path d="M57 397h608" stroke="#d6c7bb" stroke-width="8" stroke-linecap="round"/>
</svg>
